<svg class="{{ include.class }}" viewBox="0 0 179 74" xmlns="http://www.w3.org/2000/svg">
    <title>Codereamer Trade Limited</title>
    <g fill="#4a4a4a" fill-rule="evenodd">
        <path opacity=".1" d="M81.464 0h37.952l-33.52 73.352H48"/>
        <path d="M6.674 40.074c.732 0 1.362-.123 1.89-.37.528-.245 1.08-.638 1.656-1.178l1.368 1.404c-1.332 1.476-2.95 2.214-4.85 2.214-1.903 0-3.48-.612-4.735-1.836C.75 39.084.123 37.536.123 35.664c0-1.872.638-3.432 1.916-4.68 1.27-1.248 2.89-1.872 4.84-1.872 1.95 0 3.58.72 4.88 2.16l-1.35 1.476c-.6-.576-1.168-.978-1.7-1.206-.536-.228-1.16-.342-1.88-.342-1.27 0-2.34.41-3.206 1.233-.864.822-1.296 1.872-1.296 3.15 0 1.278.43 2.346 1.29 3.204.86.858 1.873 1.287 3.05 1.287zm15.3-9.018c-1.248 0-2.3.444-3.16 1.332-.857.888-1.286 1.965-1.286 3.23 0 1.267.43 2.344 1.287 3.232.858.888 1.91 1.332 3.16 1.332 1.247 0 2.3-.444 3.158-1.332.858-.888 1.287-1.965 1.287-3.23 0-1.267-.43-2.344-1.287-3.232-.858-.888-1.91-1.332-3.16-1.332zm0 11.07c-1.872 0-3.444-.62-4.716-1.863-1.272-1.242-1.908-2.79-1.908-4.644 0-1.86.636-3.41 1.908-4.65 1.272-1.24 2.844-1.867 4.716-1.867 1.872 0 3.444.62 4.716 1.863 1.272 1.242 1.908 2.79 1.908 4.644s-.636 3.4-1.908 4.644c-1.272 1.244-2.844 1.865-4.716 1.865zm21.078-11.06c1.212 1.097 1.818 2.624 1.818 4.58s-.588 3.504-1.764 4.644C41.93 41.43 40.13 42 37.706 42H33.53V29.418h4.32c2.256 0 3.99.55 5.202 1.647zm-.324 4.634c0-2.88-1.65-4.32-4.95-4.32h-2.124v8.622h2.358c1.524 0 2.69-.363 3.5-1.09.81-.725 1.216-1.796 1.216-3.212zm15.966-6.282v1.998H51.98v3.33h6.03v1.89h-6.03v3.366h6.93V42h-9.054V29.418h8.838zm29 0v1.998H80.98v3.33h6.03v1.89h-6.03v3.366h6.93V42h-9.054V29.418h8.838zm-16.49 8.01L74.498 42h-2.7l-3.006-4.23h-2.79V42h-2.124v-3.47l4.23-9.112h.45c1.92 0 3.294.324 4.122.972.828.648 1.242 1.686 1.242 3.114 0 2.076-.906 3.384-2.718 3.924zm.54-3.933c0-.822-.222-1.386-.666-1.692-.444-.306-1.236-.46-2.376-.46h-1.468l-1.232 2.595v1.906h2.646c1.2 0 2.016-.186 2.448-.558.432-.372.648-.97.648-1.79zm23.292 5.643L93.776 42h-2.268l5.544-12.582h2.268L104.864 42h-2.268l-1.26-2.862h-6.3zm5.436-1.962l-2.286-5.184-2.286 5.184h4.572zM110.984 42h-2.124V29.418h3.312l3.798 7.902 3.798-7.902h3.294V42h-2.124v-9.828l-4.392 8.73h-1.188l-4.374-8.73V42zm26.658-12.582v1.998h-6.714v3.33h6.03v1.89h-6.03v3.366h6.93V42h-9.054V29.418h8.838zm15.228 4.086c0 2.076-.906 3.384-2.718 3.924L153.446 42h-2.7l-3.006-4.23h-2.79V42h-2.124V29.418h4.68c1.92 0 3.294.324 4.122.972.828.648 1.242 1.686 1.242 3.114zm-2.826 1.782c.432-.372.648-.97.648-1.79 0-.823-.222-1.387-.666-1.693-.444-.306-1.236-.46-2.376-.46h-2.7v4.5h2.646c1.2 0 2.016-.185 2.448-.557zm12.708-3.924V42h-2.124V31.362h-3.816v-1.944h9.756v1.944h-3.816zM171.122 42V29.418h2.124v10.566h5.742V42h-7.866z"/>
    </g>
</svg>
