<svg class="{{ include.class }}" viewBox="0 0 91 74" xmlns="http://www.w3.org/2000/svg" xmlns:xlink="http://www.w3.org/1999/xlink">
    <defs>
        <path id="a" d="M33.464 0h37.952l-33.52 73.352H0z"/>
    </defs>
    <g fill="none" fill-rule="evenodd">
        <g transform="translate(10)">
            <mask id="b" fill="#fff">
                <use xlink:href="#a"/>
            </mask>
            <use fill="#4A4A4A" opacity=".1" xlink:href="#a"/>
            <path fill="#000" mask="url(#b)" d="M25.152 29.816h1.888V41h-2.048l-6.336-8.16V41h-1.888V29.816h1.888l6.496 8.352"/>
        </g>
        <path d="M44.368 31.544V41H42.48v-9.456h-3.392v-1.728h8.672v1.728h-3.392zm7.024 6.912L50.272 41h-2.016l4.928-11.184H55.2L60.128 41h-2.016l-1.12-2.544h-5.6zm4.832-1.744l-2.032-4.608-2.032 4.608h4.064zm10.56 2.576c.65 0 1.21-.11 1.68-.328.47-.22.96-.568 1.472-1.048l1.216 1.248c-1.184 1.312-2.62 1.968-4.312 1.968-1.69 0-3.093-.544-4.208-1.632-1.115-1.088-1.672-2.464-1.672-4.128 0-1.664.568-3.05 1.704-4.16 1.136-1.11 2.57-1.664 4.304-1.664 1.733 0 3.18.64 4.344 1.92l-1.2 1.312c-.533-.512-1.037-.87-1.512-1.072-.475-.203-1.032-.304-1.672-.304-1.13 0-2.08.365-2.848 1.096-.768.73-1.152 1.664-1.152 2.8s.38 2.085 1.144 2.848c.763.763 1.667 1.144 2.712 1.144zm10.896-7.744V41h-1.888v-9.456H72.4v-1.728h8.672v1.728H77.68zm7.472.08c-.352.224-.528.563-.528 1.016 0 .453.176.8.528 1.04.352.24 1.1.5 2.248.776 1.147.277 2.01.667 2.592 1.168.58.5.872 1.24.872 2.216 0 .976-.368 1.768-1.104 2.376-.736.608-1.7.912-2.896.912-1.75 0-3.3-.603-4.656-1.808l1.184-1.424c1.13.98 2.304 1.472 3.52 1.472.608 0 1.09-.13 1.448-.392.357-.26.536-.608.536-1.04 0-.432-.168-.768-.504-1.008-.336-.24-.915-.46-1.736-.656-.82-.197-1.445-.38-1.872-.544-.427-.165-.805-.38-1.136-.648-.66-.5-.992-1.27-.992-2.304 0-1.035.376-1.832 1.128-2.392.752-.56 1.683-.84 2.792-.84.715 0 1.424.117 2.128.352.704.235 1.312.565 1.824.992l-1.008 1.424c-.33-.3-.78-.544-1.344-.736-.565-.192-1.123-.288-1.672-.288-.55 0-1 .112-1.352.336zm-66.656 9.488c-1.664 0-3.06-.552-4.192-1.656-1.13-1.104-1.696-2.48-1.696-4.128 0-1.648.565-3.024 1.696-4.128 1.13-1.104 2.528-1.656 4.192-1.656 1.664 0 3.06.552 4.192 1.656 1.13 1.104 1.696 2.48 1.696 4.128 0 1.648-.565 3.024-1.696 4.128-1.13 1.104-2.528 1.656-4.192 1.656zm0-9.84c-1.11 0-2.045.395-2.808 1.184-.763.79-1.144 1.747-1.144 2.872 0 1.125.38 2.083 1.144 2.872.763.79 1.7 1.184 2.808 1.184 1.11 0 2.045-.395 2.808-1.184.763-.79 1.144-1.747 1.144-2.872 0-1.125-.38-2.083-1.144-2.872-.763-.79-1.7-1.184-2.808-1.184zm-11.84 8.016c.65 0 1.21-.11 1.68-.328.47-.22.96-.568 1.472-1.048l1.216 1.248c-1.184 1.312-2.62 1.968-4.312 1.968-1.69 0-3.093-.544-4.208-1.632C1.39 38.408.832 37.032.832 35.368c0-1.664.568-3.05 1.704-4.16 1.136-1.11 2.57-1.664 4.304-1.664 1.733 0 3.18.64 4.344 1.92l-1.2 1.312c-.533-.512-1.037-.87-1.512-1.072C7.997 31.5 7.44 31.4 6.8 31.4c-1.13 0-2.08.365-2.848 1.096-.768.73-1.152 1.664-1.152 2.8s.38 2.085 1.144 2.848c.763.763 1.667 1.144 2.712 1.144z" fill="#000"/>
    </g>
</svg>
